<?xml version="1.0" encoding="UTF-8"?>
<svg id="Layer_2" data-name="Layer 2" xmlns="http://www.w3.org/2000/svg" viewBox="0 0 28 28">
  <defs>
    <style>
      .cls-1 {
        fill: #161514;
      }
    </style>
  </defs>
  <g id="Layer_1-2" data-name="Layer 1">
    <path class="cls-1" d="M24.67,0H3.33C1.49,0,0,1.49,0,3.33v21.33c0,1.84,1.49,3.33,3.33,3.33h21.33c1.84,0,3.33-1.49,3.33-3.33V3.33c0-1.84-1.49-3.33-3.33-3.33ZM8.67,10.67v12.67h-4v-12.67h4ZM4.67,6.98c0-.93.8-1.65,2-1.65s1.95.71,2,1.65c0,.93-.75,1.69-2,1.69s-2-.75-2-1.69ZM23.33,23.33h-4v-6.67c0-1.33-.67-2.67-2.33-2.69h-.05c-1.61,0-2.28,1.37-2.28,2.69v6.67h-4v-12.67h4v1.71s1.29-1.71,3.87-1.71,4.79,1.82,4.79,5.51v7.16Z"/>
  </g>
</svg>