<?xml version="1.0" encoding="UTF-8"?>
<svg id="Layer_2" data-name="Layer 2" xmlns="http://www.w3.org/2000/svg" viewBox="0 0 28 28">
  <defs>
    <style>
      .cls-1 {
        fill: #161514;
      }
    </style>
  </defs>
  <g id="Layer_1-2" data-name="Layer 1">
    <path class="cls-1" d="M8.16,0C3.66,0,0,3.67,0,8.17v11.67c0,4.5,3.67,8.17,8.17,8.17h11.67c4.5,0,8.17-3.67,8.17-8.17v-11.67c0-4.5-3.67-8.16-8.17-8.16h-11.67ZM22.4,4.48c.62,0,1.12.5,1.12,1.12s-.5,1.12-1.12,1.12-1.12-.5-1.12-1.12.5-1.12,1.12-1.12ZM14,6.72c4.02,0,7.28,3.26,7.28,7.28s-3.27,7.28-7.28,7.28-7.28-3.27-7.28-7.28,3.26-7.28,7.28-7.28ZM14,8.96c-2.78,0-5.04,2.26-5.04,5.04s2.26,5.04,5.04,5.04,5.04-2.26,5.04-5.04-2.26-5.04-5.04-5.04Z"/>
  </g>
</svg>