<?xml version="1.0" encoding="UTF-8"?>
<svg id="Layer_2" data-name="Layer 2" xmlns="http://www.w3.org/2000/svg" viewBox="0 0 28 28">
  <defs>
    <style>
      .cls-1 {
        fill: #161514;
      }
    </style>
  </defs>
  <g id="Layer_1-2" data-name="Layer 1">
    <path class="cls-1" d="M21.17,15.4c-.98,0-1.94.09-2.88.24,1.28,3.31,2.26,6.77,2.89,10.35,3.34-2.01,5.78-5.35,6.55-9.3-2.02-.83-4.24-1.29-6.56-1.29ZM15.42,14.17c-.37-.85-.77-1.69-1.19-2.51-2.91,1.06-6.05,1.64-9.33,1.64-1.65,0-3.27-.16-4.84-.44-.03.38-.06.75-.06,1.14,0,3.78,1.51,7.22,3.96,9.74,2.38-4.53,6.49-8.02,11.45-9.57ZM16.17,10.85c.46.92.9,1.85,1.31,2.8,1.19-.23,2.43-.36,3.69-.36,2.39,0,4.68.44,6.8,1.23,0-.18.03-.35.03-.53,0-3.49-1.29-6.67-3.4-9.12-2.39,2.49-5.24,4.53-8.42,5.98ZM5.59,25.17c2.35,1.77,5.25,2.83,8.41,2.83,1.85,0,3.61-.37,5.23-1.02-.62-3.76-1.64-7.39-3-10.85-4.68,1.4-8.53,4.72-10.64,9.04ZM23.11,3.39c-2.45-2.11-5.63-3.39-9.11-3.39-1.53,0-2.99.25-4.37.71,2.09,2.58,3.96,5.35,5.57,8.28,2.99-1.35,5.67-3.26,7.91-5.6ZM.39,10.79c1.47.27,2.97.41,4.51.41,2.92,0,5.73-.51,8.34-1.42-1.62-2.92-3.5-5.67-5.62-8.22C4.02,3.4,1.34,6.76.39,10.79Z"/>
  </g>
</svg>