<?xml version="1.0" encoding="UTF-8"?>
<svg id="Layer_2" data-name="Layer 2" xmlns="http://www.w3.org/2000/svg" viewBox="0 0 28 28">
  <defs>
    <style>
      .cls-1 {
        fill: #161514;
      }
    </style>
  </defs>
  <g id="Layer_1-2" data-name="Layer 1">
    <path class="cls-1" d="M4.67,0C2.09,0,0,2.09,0,4.67v18.67c0,2.58,2.09,4.67,4.67,4.67h18.67c2.58,0,4.67-2.09,4.67-4.67V4.67c0-2.58-2.09-4.67-4.67-4.67H4.67ZM16.33,8.75h5.83v1.5h-5.83v-1.5ZM5.34,8.75h5.02c.55,0,3.5-.04,3.5,2.68,0,1.44-.98,1.93-1.42,2.14.66.21,1.86.82,1.86,2.68,0,2.88-3.28,3-3.71,3h-5.24v-10.5ZM7.58,10.57v2.46h2.4c.33,0,1.42-.18,1.42-1.29s-1.42-1.18-1.64-1.18h-2.19ZM19.42,11.08c2.89,0,3.68,2.26,3.79,2.8.11.54.11,1.01.11,1.66h-5.87c0,.65.34,2.1,2.07,2.1.46,0,.81-.11,1.15-.32.34-.22.46-.43.57-.65h1.96c-.34.86-.8,1.51-1.5,1.94-.69.43-1.49.64-2.41.64-.58,0-1.15-.11-1.73-.32-.46-.22-.92-.54-1.26-.86-.35-.32-.58-.75-.81-1.29-.23-.43-.35-1.08-.35-1.61s.22-4.08,4.26-4.08ZM19.32,12.52c-1.69,0-1.97,1.63-1.97,1.74h3.7c-.12-.54-.6-1.74-1.73-1.74ZM7.55,14.54v2.89h2.51c.22,0,1.75-.07,1.75-1.39,0-1.32-1.2-1.5-1.75-1.5h-2.51Z"/>
  </g>
</svg>