<?xml version="1.0" encoding="UTF-8"?>
<svg id="Layer_2" data-name="Layer 2" xmlns="http://www.w3.org/2000/svg" xmlns:xlink="http://www.w3.org/1999/xlink" viewBox="0 0 461.44 470.79">
  <defs>
    <style>
      .cls-1 {
        fill: #b7ab98;
      }

      .cls-2 {
        fill: none;
      }

      .cls-3 {
        clip-path: url(#clippath);
      }

      .cls-4 {
        fill: #161514;
      }
    </style>
    <clipPath id="clippath">
      <path class="cls-2" d="M131.14,154.44c-2.21,9.86-1.75,21.43-1.41,25.33s4.38,6.07,5.39,7.79,2.07,5.78.23,9.01c-1.84,3.22-4.13,7.86-5.14,10.48-.89,2.31-5.07,8.34-7.56,13.58-1.56,3.29-3.48,8.53-1.95,11.92s4.67,4.5,9.25,5.04c6.09.72,4.31,3.48,3.96,6.35-.69,2-2.03,2.29-1.49,4.47.35,1.42,2.8,5.3,5.26,6.61,0,0-3.19,2.28-3.29,3.94s-1.17,4.12,1.71,7.8c2.28,2.91,4.03,4.99,3.88,7.02-.25,3.31-1.88,5.33-1.54,9.23,0,0-2.63,18.95,26.15,20s27.89.51,32.01,6.66c11.42,17.06,21.07,30.88,21.07,30.88,1.68,2.31,1.7,5.43.05,7.76-1.83,2.6-4.89,6.76-9.94,13.3-18.18,23.55-38.37,98.96-38.37,98.96,0,0,66.14,24.61,145.65-2.53,67.54-23.05,97.38-66.69,97.38-66.69-.79-6.3-16.63-36.75-19.78-42.26-3.15-5.51-14.96-26.76-22.04-35.42-7.08-8.66-27.55-23.61-27.55-23.61-9.45-11.02-18.89-13.38-18.89-13.38-.79-4.72-5.51-6.3-5.51-6.3-2.36-1.57-3.94-10.23-6.3-16.53-2.36-6.3-3.94-22.83-4.27-23.45s-.46-23.78-.06-32.04c.39-8.27-1.18-12.2-1.18-12.2.79-5.51-.79-11.81-.79-14.96s1.97-11.58,1.97-11.58v-8.49s0-25.98-17.32-44.87c-17.32-18.89-41.72-25.98-41.72-25.98,0,0,.79-3.15-3.94-5.2s-9.45,1.27-9.45,1.27c0,0-4.72.79-18.1-1.57s-40.93-2.36-48.02-3.15-11.81,5.51-12.59,8.66c-.79,3.15-3.94,10.23-7.87,17.32-3.94,7.08-18.89,37-18.89,37l-70.48-.04c-3.94,3.94,5.51,9.45,16.53,13.38,11.02,3.94,54.96,6.51,54.96,6.51Z"/>
    </clipPath>
  </defs>
  <g id="Layer_1-2" data-name="Layer 1">
    <g>
      <circle class="cls-1" cx="230.72" cy="230.72" r="230.72"/>
      <g class="cls-3">
        <circle class="cls-4" cx="230.3" cy="230.72" r="230.72"/>
      </g>
    </g>
  </g>
</svg>