<?xml version="1.0" encoding="UTF-8"?>
<svg id="Layer_2" data-name="Layer 2" xmlns="http://www.w3.org/2000/svg" viewBox="0 0 144 142.84">
  <defs>
    <style>
      .cls-1 {
        fill: #b7ab98;
      }
    </style>
  </defs>
  <g id="Layer_1-2" data-name="Layer 1">
    <path class="cls-1" d="M144,72c0,35.35-25.48,64.76-59.08,70.84-1.21-4.34-6.71-23.5-11.73-30-1.58-2.04-2.53-3.33-3.1-4.15-.51-.73-.51-1.7.02-2.42,0,0,3-4.31,6.57-9.63,1.28-1.92,1.01-1.76,9.99-2.08,8.98-.33,8.16-6.24,8.16-6.24.1-1.22-.4-1.85-.48-2.88-.05-.63.5-1.28,1.21-2.19.9-1.15.56-1.92.53-2.44-.03-.51-1.03-1.23-1.03-1.23.77-.41,1.54-1.62,1.65-2.06.16-.68-.25-.77-.47-1.4-.11-.89-.66-1.75,1.24-1.98,1.43-.17,2.4-.51,2.88-1.57.48-1.06-.12-2.7-.6-3.72-.78-1.64-2.09-3.52-2.36-4.24-.32-.82-1.03-2.27-1.61-3.27-.58-1.01-.24-2.28.07-2.81.32-.54,1.58-1.22,1.69-2.43.1-1.22.24-4.83-.45-7.91,0,0,13.71-.8,17.15-2.03s6.39-2.95,5.16-4.17h-21.99s-4.67-9.33-5.9-11.54c-1.23-2.21-2.21-4.42-2.45-5.4-.25-.98-1.72-2.95-3.94-2.7-2.2.24-10.8.24-14.98.98-4.17.74-5.65.49-5.65.49,0,0-1.47-1.03-2.94-.39-1.48.64-1.23,1.62-1.23,1.62,0,0-7.62,2.21-13.02,8.1-5.41,5.9-5.41,14-5.41,14v2.65s.62,2.64.62,3.62-.49,2.95-.25,4.67c0,0-.49,1.23-.37,3.8.13,2.58.09,9.81-.02,10.01-.1.19-.59,5.35-1.33,7.31-.74,1.97-1.23,4.67-1.96,5.16,0,0-1.48.49-1.72,1.96,0,0-2.95.74-5.9,4.18,0,0-6.39,4.67-8.59,7.37-2.22,2.7-5.9,9.34-6.88,11.05-.38.66-1.33,2.45-2.38,4.52C4.86,101.73,0,87.43,0,72,0,32.23,32.24,0,72,0s72,32.23,72,72Z"/>
  </g>
</svg>