<svg width="28" height="28" viewBox="0 0 28 28" fill="none" xmlns="http://www.w3.org/2000/svg">
<path d="M23.625 0C26.0411 0 28 1.95891 28 4.375V23.625C28 26.0411 26.0411 28 23.625 28H4.375C1.95891 28 0 26.0411 0 23.625V4.375C0 1.95891 1.95891 0 4.375 0H23.625ZM20.8193 6.99414C20.2471 6.9779 19.681 7.11821 19.1826 7.40039C18.7095 7.691 18.3323 8.1148 18.0977 8.61816C17.793 9.26328 17.6475 9.97308 17.6738 10.6865V11.1738H16.7959C16.722 11.1716 16.6513 11.2024 16.6025 11.2578C16.5595 11.3121 16.5363 11.3794 16.5391 11.4482V12.7607C16.5357 12.8312 16.5561 12.9004 16.5957 12.958C16.6433 13.0202 16.7175 13.056 16.7959 13.0537H17.6738V19.8555C17.6845 20.006 17.8143 20.1198 17.9648 20.1094H19.8818C20.0325 20.0987 20.1464 19.968 20.1357 19.8174V13.0566H21.4844L21.4951 13.0547C21.5662 13.0468 21.6325 13.0136 21.6807 12.9609C21.7271 12.9056 21.7512 12.8352 21.749 12.7637V11.417C21.7395 11.2749 21.6167 11.1675 21.4746 11.1768H20.1357V10.5117C20.1066 10.1197 20.1984 9.72733 20.3994 9.38965C20.5769 9.15514 20.862 9.02748 21.1553 9.0498C21.372 9.04588 21.5875 9.08371 21.7891 9.16211C21.8695 9.20279 21.9661 9.1928 22.0371 9.1377C22.0959 9.08002 22.1267 8.99931 22.1211 8.91699V7.48145C22.1228 7.4144 22.1061 7.34776 22.0732 7.28906C22.0385 7.23138 21.9838 7.18646 21.9199 7.16406C21.5678 7.03422 21.1938 6.97684 20.8193 6.99414ZM10.3936 8.07422C9.02267 8.07422 7.95746 8.08586 7.19922 8.10938C7.12649 8.10775 7.05691 8.13909 7.00879 8.19336C6.96574 8.24763 6.94255 8.31499 6.94531 8.38379V19.8662C6.95482 20.0083 7.07767 20.1167 7.21973 20.1074H9.09766C9.17122 20.1101 9.24426 20.0858 9.30176 20.0391C9.35932 19.9865 9.3923 19.9112 9.38965 19.833V16.0381L9.56738 16.0488H10.1611C11.5673 16.0488 12.7409 15.7175 13.6699 15.0449C14.6251 14.35 15.0965 13.3208 15.0977 11.9814C15.1251 10.9303 14.7022 9.91743 13.9355 9.19727C13.1634 8.43812 11.9718 8.07429 10.3936 8.07422ZM10.3906 9.9873C11.1343 9.9873 11.6837 10.1756 12.0605 10.5312L12.0615 10.5332V10.5322L12.0635 10.5352C12.4697 10.9176 12.685 11.4606 12.6504 12.0176C12.6504 12.7913 12.4244 13.3168 12.0029 13.6338C11.4911 13.9765 10.882 14.1471 10.2666 14.1191C9.86116 14.1191 9.56955 14.1101 9.38867 14.0967V10.0078C9.57288 9.99493 9.90411 9.98731 10.3906 9.9873Z" fill="#B7AB98"/>
</svg>
