<svg width="28" height="28" viewBox="0 0 28 28" fill="none" xmlns="http://www.w3.org/2000/svg">
<path d="M4.66667 0C2.0895 0 0 2.0895 0 4.66667V23.3333C0 25.9105 2.0895 28 4.66667 28H23.3333C25.9105 28 28 25.9105 28 23.3333V4.66667C28 2.0895 25.9105 0 23.3333 0H4.66667ZM16.3333 8.75H22.1667V10.2493H16.3333V8.75ZM5.33545 8.75114H10.3599C10.9053 8.75114 13.8553 8.71605 13.8553 11.4285C13.8553 12.8705 12.8715 13.357 12.4346 13.5705C13.0897 13.7851 14.2905 14.3929 14.2905 16.249C14.2911 19.126 11.0149 19.2494 10.5786 19.25H5.33545V8.75114ZM7.57536 10.5706V13.035H9.97933C10.3066 13.035 11.3978 12.8506 11.3978 11.7498C11.3978 10.6491 9.97816 10.5706 9.76058 10.5706H7.57536ZM19.4243 11.0833C22.3171 11.0833 23.1022 13.3408 23.2183 13.8792C23.3332 14.4176 23.3333 14.8941 23.3333 15.5392H17.4681C17.4681 16.1844 17.811 17.6401 19.5382 17.6401C19.9985 17.6401 20.3442 17.5312 20.689 17.3166C21.0337 17.1007 21.1483 16.8858 21.2632 16.6706H23.2183C22.8735 17.5304 22.4136 18.1764 21.7223 18.6063C21.0328 19.0362 20.2274 19.25 19.3081 19.25C18.7329 19.25 18.1566 19.1423 17.582 18.9264C17.1218 18.7106 16.6627 18.3905 16.3185 18.0674C15.9732 17.7465 15.7429 17.3161 15.513 16.7788C15.2826 16.3495 15.1667 15.7033 15.1667 15.1667C15.1667 14.6306 15.3818 11.0833 19.4243 11.0833ZM19.3172 12.52C17.6285 12.52 17.3519 14.1479 17.3519 14.2552H21.0513C20.9358 13.7139 20.4501 12.52 19.3172 12.52ZM7.55143 14.5366V17.4282H10.0648C10.2829 17.4282 11.8114 17.3566 11.8114 16.036C11.8119 14.7136 10.6108 14.5366 10.0648 14.5366H7.55143Z" fill="#B7AB98"/>
</svg>
