<svg width="62" height="68" viewBox="0 0 62 68" fill="none" xmlns="http://www.w3.org/2000/svg">
<path d="M12.7341 14.2434C12.351 15.9188 12.4307 17.8849 12.4897 18.5476C12.5486 19.2103 13.249 19.5791 13.4241 19.8714C13.5992 20.1636 13.783 20.8535 13.464 21.4024C13.145 21.9496 12.748 22.738 12.5729 23.1832C12.4186 23.5758 11.6939 24.6004 11.2622 25.4908C10.9917 26.0499 10.6589 26.9403 10.9241 27.5164C11.1894 28.0924 11.7338 28.281 12.5278 28.3728C13.5836 28.4952 13.275 28.9642 13.2143 29.4518C13.0947 29.7917 12.8624 29.841 12.956 30.2114C13.0167 30.4527 13.4415 31.112 13.868 31.3346C13.868 31.3346 13.3149 31.7221 13.2976 32.0042C13.2802 32.2862 13.0947 32.7043 13.594 33.3296C13.9893 33.8241 14.2927 34.1775 14.2667 34.5225C14.2234 35.0849 13.9408 35.4282 13.9997 36.0909C13.9997 36.0909 13.5437 39.311 18.5333 39.4894C23.5229 39.6679 23.3686 39.5761 24.0829 40.6212C26.0628 43.5201 27.7358 45.8685 27.7358 45.8685C28.0271 46.261 28.0306 46.7912 27.7445 47.1871C27.4272 47.629 26.8967 48.3358 26.0212 49.4472C22.8693 53.449 19.369 66.2632 19.369 66.2632C19.369 66.2632 30.8357 70.4451 44.6204 65.8333C56.3298 61.9164 61.5032 54.5008 61.5032 54.5008C61.3662 53.4303 58.62 48.256 58.0739 47.3197C57.5278 46.3834 55.4803 42.7724 54.2528 41.3009C53.0254 39.8293 49.4765 37.2889 49.4765 37.2889C47.8381 35.4163 46.2015 35.0153 46.2015 35.0153C46.0646 34.2132 45.2462 33.9447 45.2462 33.9447C44.8371 33.6779 44.5632 32.2064 44.154 31.1358C43.7449 30.0653 43.4709 27.2564 43.4137 27.151C43.3565 27.0457 43.334 23.1102 43.4033 21.7066C43.4709 20.3013 43.1987 19.6335 43.1987 19.6335C43.3357 18.6972 43.0618 17.6266 43.0618 17.0913C43.0618 16.5561 43.4033 15.1236 43.4033 15.1236V13.6809C43.4033 13.6809 43.4033 9.2662 40.4005 6.05627C37.3978 2.84635 33.1675 1.64157 33.1675 1.64157C33.1675 1.64157 33.3045 1.1063 32.4845 0.757945C31.6644 0.409594 30.8461 0.973752 30.8461 0.973752C30.8461 0.973752 30.0278 1.10799 27.7081 0.706966C25.3884 0.305938 20.6121 0.305938 19.3829 0.171695C18.1537 0.0374529 17.3354 1.10799 17.2001 1.64327C17.0632 2.17854 16.517 3.38162 15.8357 4.5864C15.1526 5.78949 12.5607 10.8737 12.5607 10.8737L0.3416 10.8669C-0.341479 11.5364 1.29687 12.4727 3.20741 13.1405C5.11795 13.8101 12.7358 14.2468 12.7358 14.2468L12.7341 14.2434Z" fill="black"/>
</svg>
