<svg width="28" height="28" viewBox="0 0 28 28" fill="none" xmlns="http://www.w3.org/2000/svg">
<path d="M21.175 15.4C20.1936 15.4 19.2332 15.4861 18.2959 15.6436C19.5797 18.9532 20.5527 22.414 21.1848 25.9931C24.5217 23.9862 26.9612 20.6395 27.734 16.6929C25.7096 15.862 23.4955 15.4 21.175 15.4ZM15.4161 14.1715C15.0416 13.3217 14.644 12.4838 14.2268 11.6578C11.3155 12.7197 8.1746 13.3 4.9 13.3C3.2466 13.3 1.6303 13.1439 0.0573998 12.8611C0.0272998 13.2377 0 13.6157 0 14C0 17.7835 1.5148 21.2156 3.9627 23.7377C6.3399 19.2031 10.4524 15.7157 15.4161 14.1715ZM16.1735 10.8535C16.6348 11.774 17.0758 12.7064 17.4867 13.6556C18.6816 13.4246 19.9136 13.3 21.175 13.3C23.5662 13.3 25.8559 13.7368 27.9734 14.5306C27.9797 14.3528 28 14.1792 28 14C28 10.514 26.7106 7.3283 24.5952 4.8755C22.2068 7.3668 19.3536 9.4052 16.1735 10.8535ZM5.5895 25.165C7.9345 26.936 10.8416 28 14 28C15.8487 28 17.6113 27.6311 19.2283 26.9773C18.6088 23.2127 17.5917 19.5825 16.2281 16.1238C11.5507 17.5196 7.6958 20.8404 5.5895 25.165ZM23.1105 3.3915C20.6591 1.2838 17.479 0 14 0C12.4733 0 11.0068 0.2541 9.6299 0.7077C11.7229 3.2886 13.5933 6.0564 15.204 8.988C18.1937 7.6426 20.874 5.7323 23.1105 3.3915ZM0.3864 10.787C1.8522 11.0537 3.3586 11.2 4.9 11.2C7.8211 11.2 10.6253 10.6946 13.2363 9.7769C11.6151 6.86 9.7356 4.1062 7.6181 1.5547C4.0243 3.4048 1.3377 6.7606 0.3864 10.787Z" fill="#B7AB98"/>
</svg>
