<?xml version="1.0" encoding="UTF-8"?>
<svg id="Layer_2" data-name="Layer 2" xmlns="http://www.w3.org/2000/svg" viewBox="0 0 500 500">
  <defs>
    <style>
      .cls-1 {
        fill: #ff6200;
      }
    </style>
  </defs>
  <g id="Layer_1-2" data-name="Layer 1">
    <g>
      <path class="cls-1" d="M500,250c0,122.76-88.47,224.85-205.14,245.98-14.55,2.64-29.55,4.02-44.86,4.02-84.49,0-159.18-41.91-204.44-106.07C16.86,353.23,0,303.58,0,250,0,111.92,111.93,0,250,0s250,111.92,250,250Z"/>
      <path d="M396.71,160.29c-11.94,4.26-59.55,7.04-59.55,7.04,2.39,10.68,1.9,23.22,1.54,27.45-.37,4.23-4.75,6.58-5.84,8.44-1.11,1.86-2.25,6.26-.25,9.76,1.99,3.49,4.46,8.51,5.57,11.36.96,2.5,5.49,9.04,8.19,14.71,1.69,3.56,3.77,9.24,2.11,12.93-1.67,3.69-5.06,4.88-10.02,5.46-6.6.78-4.68,3.77-4.29,6.88.75,2.17,2.2,2.48,1.61,4.84-.38,1.54-3.03,5.74-5.7,7.17,0,0,3.47,2.47,3.56,4.27.1,1.8,1.27,4.45-1.85,8.45-2.47,3.15-4.37,5.41-4.2,7.6.27,3.6,2.04,5.78,1.67,10,0,0,2.85,20.54-28.34,21.67-31.19,1.13-30.22.55-34.68,7.22-12.37,18.49-22.82,33.46-22.82,33.46-1.82,2.5-1.84,5.87-.07,8.41,1.99,2.82,5.3,7.32,10.77,14.4,17.42,22.57,36.55,89.08,40.73,104.16-14.55,2.64-29.55,4.02-44.86,4.02-84.49,0-159.18-41.91-204.44-106.07,3.64-7.19,6.93-13.4,8.25-15.68,3.4-5.97,16.2-29,23.88-38.38,7.67-9.38,29.85-25.58,29.85-25.58,10.23-11.94,20.47-14.51,20.47-14.51.86-5.11,5.97-6.82,5.97-6.82,2.56-1.71,4.26-11.1,6.83-17.91,2.56-6.83,4.26-24.74,4.62-25.41.36-.68.5-25.77.08-34.73-.43-8.95,1.28-13.22,1.28-13.22-.86-5.97.85-12.8.85-16.2s-2.12-12.56-2.12-12.56v-9.2s0-28.14,18.76-48.62c18.77-20.47,45.21-28.14,45.21-28.14,0,0-.86-3.41,4.27-5.63,5.11-2.22,10.23,1.37,10.23,1.37,0,0,5.13.86,19.62-1.7s44.35-2.56,52.02-3.41c7.68-.86,12.8,5.97,13.65,9.38.86,3.41,4.26,11.08,8.53,18.77,4.27,7.67,20.47,40.08,20.47,40.08l76.37-.03c4.27,4.26-5.97,10.23-17.91,14.5Z"/>
    </g>
  </g>
</svg>