<?xml version="1.0" encoding="UTF-8"?>
<svg id="Layer_2" data-name="Layer 2" xmlns="http://www.w3.org/2000/svg" viewBox="0 0 460 460">
  <defs>
    <style>
      .cls-1 {
        fill: #ff6200;
      }

      .cls-2 {
        fill: #161514;
      }
    </style>
  </defs>
  <g id="Layer_2-2" data-name="Layer 2">
    <g>
      <path class="cls-1" d="M460,230c0,56.13-20.11,107.57-53.52,147.5-42.18,50.43-105.58,82.5-176.48,82.5-21.18,0-41.7-2.86-61.17-8.23-.4-.11-.82-.23-1.25-.34C70.88,424.23,0,335.4,0,230,0,102.97,102.97,0,230,0s230,102.97,230,230Z"/>
      <path class="cls-2" d="M406.48,377.5c-42.18,50.43-105.58,82.5-176.48,82.5-21.18,0-41.7-2.86-61.17-8.23-.4-.11-.82-.23-1.25-.34,5.4-18.9,24.92-72.63,39.62-91.63,5-6.5,8-10.6,9.9-13.2,1.6-2.3,1.6-5.4,0-7.7,0,0-9.6-13.7-20.9-30.6-4.1-6.1-3.2-5.6-31.7-6.6s-25.9-19.8-25.9-19.8c-.3-3.9,1.3-5.9,1.5-9.1.2-2-1.6-4.1-3.8-7-2.9-3.6-1.8-6.1-1.7-7.7.1-1.6,3.3-3.9,3.3-3.9-2.4-1.3-4.9-5.1-5.2-6.6-.5-2.2.8-2.4,1.5-4.4.4-2.8,2.1-5.6-3.9-6.3-4.5-.5-7.7-1.6-9.2-5-1.5-3.4.4-8.6,1.9-11.8,2.5-5.2,6.6-11.2,7.5-13.5,1-2.6,3.3-7.2,5.1-10.4,1.8-3.2.8-7.2-.2-8.9-1-1.7-5-3.9-5.4-7.7-.3-3.9-.8-15.3,1.4-25.1-.8,0-43.6-2.6-54.5-6.5-10.9-3.9-20.3-9.4-16.4-13.3h69.9s14.8-29.6,18.7-36.6c3.9-7,7-14,7.8-17.2.8-3.1,5.5-9.4,12.5-8.6,7,.8,34.3.8,47.6,3.1s17.9,1.6,17.9,1.6c0,0,4.7-3.3,9.4-1.3s3.9,5.2,3.9,5.2c0,0,24.2,7,41.4,25.8,17.2,18.7,17.2,44.5,17.2,44.5v8.4s-2,8.4-2,11.5,1.6,9.4.8,14.8c0,0,1.6,3.9,1.2,12.1-.4,8.2-.3,31.2,0,31.8.3.6,1.9,17,4.2,23.2,2.3,6.3,3.9,14.8,6.3,16.4,0,0,4.7,1.6,5.5,6.2,0,0,9.4,2.3,18.7,13.3,0,0,20.3,14.8,27.3,23.4,7,8.6,18.7,29.6,21.9,35.1,2.1,3.6,10.58,19,15.78,30.1Z"/>
    </g>
  </g>
</svg>