<?xml version="1.0" encoding="UTF-8"?>
<svg id="Layer_1" xmlns="http://www.w3.org/2000/svg" version="1.1" viewBox="0 0 28 28">
  <!-- Generator: Adobe Illustrator 29.1.0, SVG Export Plug-In . SVG Version: 2.1.0 Build 142)  -->
  <defs>
    <style>
      .st0 {
        fill: #f60;
      }
    </style>
  </defs>
  <path class="st0" d="M4.7,0C2.1,0,0,2.1,0,4.7v18.7c0,2.6,2.1,4.7,4.7,4.7h18.7c2.6,0,4.7-2.1,4.7-4.7V4.7C28,2.1,25.9,0,23.3,0H4.7ZM16.3,8.8h5.8v1.5h-5.8v-1.5ZM5.3,8.8h5c.5,0,3.5,0,3.5,2.7s-1,1.9-1.4,2.1c.7.2,1.9.8,1.9,2.7,0,2.9-3.3,3-3.7,3h-5.2v-10.5ZM7.6,10.6v2.5h2.4c.3,0,1.4-.2,1.4-1.3s-1.4-1.2-1.6-1.2h-2.2ZM19.4,11.1c2.9,0,3.7,2.3,3.8,2.8.1.5.1,1,.1,1.7h-5.9c0,.6.3,2.1,2.1,2.1s.8-.1,1.2-.3c.3-.2.5-.4.6-.6h2c-.3.9-.8,1.5-1.5,1.9-.7.4-1.5.6-2.4.6s-1.2-.1-1.7-.3c-.5-.2-.9-.5-1.3-.9-.3-.3-.6-.8-.8-1.3-.2-.4-.3-1.1-.3-1.6s.2-4.1,4.3-4.1ZM19.3,12.5c-1.7,0-2,1.6-2,1.7h3.7c-.1-.5-.6-1.7-1.7-1.7ZM7.6,14.5v2.9h2.5c.2,0,1.7,0,1.7-1.4,0-1.3-1.2-1.5-1.7-1.5h-2.5Z"/>
</svg>