<?xml version="1.0" encoding="UTF-8"?>
<svg id="Layer_1" xmlns="http://www.w3.org/2000/svg" version="1.1" viewBox="0 0 28 28">
  <!-- Generator: Adobe Illustrator 29.1.0, SVG Export Plug-In . SVG Version: 2.1.0 Build 142)  -->
  <defs>
    <style>
      .st0 {
        fill: #f60;
      }
    </style>
  </defs>
  <path class="st0" d="M24.7,0H3.3C1.5,0,0,1.5,0,3.3v21.3c0,1.8,1.5,3.3,3.3,3.3h21.3c1.8,0,3.3-1.5,3.3-3.3V3.3C28,1.5,26.5,0,24.7,0ZM8.7,10.7v12.7h-4v-12.7h4ZM4.7,7c0-.9.8-1.6,2-1.6s2,.7,2,1.6c0,.9-.7,1.7-2,1.7s-2-.8-2-1.7ZM23.3,23.3h-4v-6.7c0-1.3-.7-2.7-2.3-2.7h0c-1.6,0-2.3,1.4-2.3,2.7v6.7h-4v-12.7h4v1.7s1.3-1.7,3.9-1.7,4.8,1.8,4.8,5.5v7.2Z"/>
</svg>