<?xml version="1.0" encoding="UTF-8"?>
<svg id="Layer_1" xmlns="http://www.w3.org/2000/svg" version="1.1" viewBox="0 0 28 28">
  <!-- Generator: Adobe Illustrator 29.1.0, SVG Export Plug-In . SVG Version: 2.1.0 Build 142)  -->
  <defs>
    <style>
      .st0 {
        fill: #f60;
      }
    </style>
  </defs>
  <path class="st0" d="M8.2,0C3.7,0,0,3.7,0,8.2v11.7c0,4.5,3.7,8.2,8.2,8.2h11.7c4.5,0,8.2-3.7,8.2-8.2v-11.7C28,3.7,24.3,0,19.8,0h-11.7ZM22.4,4.5c.6,0,1.1.5,1.1,1.1s-.5,1.1-1.1,1.1-1.1-.5-1.1-1.1.5-1.1,1.1-1.1ZM14,6.7c4,0,7.3,3.3,7.3,7.3s-3.3,7.3-7.3,7.3-7.3-3.3-7.3-7.3,3.3-7.3,7.3-7.3ZM14,9c-2.8,0-5,2.3-5,5s2.3,5,5,5,5-2.3,5-5-2.3-5-5-5Z"/>
</svg>