<?xml version="1.0" encoding="UTF-8"?>
<svg id="Layer_1" xmlns="http://www.w3.org/2000/svg" version="1.1" viewBox="0 0 28 28">
  <!-- Generator: Adobe Illustrator 29.1.0, SVG Export Plug-In . SVG Version: 2.1.0 Build 142)  -->
  <defs>
    <style>
      .st0 {
        fill: #f60;
      }
    </style>
  </defs>
  <path class="st0" d="M21.2,15.4c-1,0-1.9,0-2.9.2,1.3,3.3,2.3,6.8,2.9,10.3,3.3-2,5.8-5.4,6.5-9.3-2-.8-4.2-1.3-6.6-1.3ZM15.4,14.2c-.4-.8-.8-1.7-1.2-2.5-2.9,1.1-6.1,1.6-9.3,1.6s-3.3-.2-4.8-.4c0,.4,0,.8,0,1.1,0,3.8,1.5,7.2,4,9.7,2.4-4.5,6.5-8,11.5-9.6ZM16.2,10.9c.5.9.9,1.9,1.3,2.8,1.2-.2,2.4-.4,3.7-.4,2.4,0,4.7.4,6.8,1.2,0-.2,0-.4,0-.5,0-3.5-1.3-6.7-3.4-9.1-2.4,2.5-5.2,4.5-8.4,6ZM5.6,25.2c2.3,1.8,5.3,2.8,8.4,2.8s3.6-.4,5.2-1c-.6-3.8-1.6-7.4-3-10.9-4.7,1.4-8.5,4.7-10.6,9ZM23.1,3.4C20.7,1.3,17.5,0,14,0s-3,.3-4.4.7c2.1,2.6,4,5.3,5.6,8.3,3-1.3,5.7-3.3,7.9-5.6ZM.4,10.8c1.5.3,3,.4,4.5.4,2.9,0,5.7-.5,8.3-1.4-1.6-2.9-3.5-5.7-5.6-8.2C4,3.4,1.3,6.8.4,10.8Z"/>
</svg>