<svg width="37" height="42" viewBox="0 0 37 42" fill="none" xmlns="http://www.w3.org/2000/svg">
<path d="M3.59991 38.5948V35.1493H2.64485C1.18431 35.1493 0 33.9888 0 32.5576V4.86229C0 3.43106 1.18431 2.27051 2.64485 2.27051H34.3551C35.8157 2.27051 37 3.43106 37 4.86229V32.5576C37 33.9888 35.8157 35.1493 34.3551 35.1493H7.1987V38.5948H7.03095L5.39819 37.4704L3.76542 38.5948H3.59767H3.59991ZM9.45885 16.4068H10.6722C10.7282 16.4068 11.2079 16.1734 11.2951 16.1142C12.3755 15.3887 12.2647 13.7043 11.1274 13.0896C11.0469 13.0457 10.717 12.8791 10.6722 12.8791H8.03521V18.0474H9.45885V16.4068ZM14.6278 12.8989C11.4886 13.38 12.0109 18.5515 15.6745 18.0254C18.8629 17.5674 18.4625 12.3104 14.6278 12.8989ZM23.1047 18.0474C23.0757 17.6276 22.1005 16.4791 22.0982 16.2008C22.0982 16.1208 22.6149 15.5498 22.7122 15.2441C22.9437 14.5098 22.7234 13.7219 22.1016 13.2474C21.9808 13.1553 21.4977 12.8802 21.3881 12.8802H18.6672V18.0485H20.007V16.5306C20.007 16.3969 20.5415 16.3586 20.6601 16.4254C20.801 16.5054 21.4887 18.0485 21.6397 18.0485L23.1047 18.0474ZM27.7917 12.8791H23.3552V14.0276H24.8616V18.0474H26.2853V14.0276H27.7917V12.8791ZM11.6362 19.278H8.03633V24.4463H9.45997V22.478H11.218V21.4117H9.45997V20.5098H11.6362V19.278ZM14.2106 19.2989C10.8489 19.7811 11.5714 25.1685 15.2563 24.4243C18.4648 23.7767 17.7535 18.7904 14.2106 19.2989ZM19.5048 19.278H18.1651V24.4463H21.9316V23.2978H19.6301C19.6211 23.2978 19.5048 23.1838 19.5048 23.175V19.278ZM24.0251 19.278H22.6015V24.4463H24.0251V19.278ZM27.0189 19.2989C23.9815 19.7361 24.1694 24.5175 27.4998 24.4802C31.2574 24.4386 30.8425 18.7487 27.0189 19.2989Z" fill="#FF6200"/>
<path d="M21.2409 15.1559C21.1123 15.2819 20.2121 15.3093 20.0835 15.2217C19.9414 14.3888 19.7413 13.9011 20.8026 14.025C21.4109 14.0962 21.6033 14.7987 21.2409 15.1559Z" fill="#FF6200"/>
<path d="M16.0445 16.5429C15.766 16.818 15.3187 16.8629 14.9407 16.818C13.5215 16.6492 13.602 13.8667 15.3366 14.0454C16.5007 14.1648 16.7445 15.8503 16.0445 16.5429Z" fill="#FF6200"/>
<path d="M27.0992 20.5271C29.3068 20.0844 29.1916 23.577 27.268 23.2778C25.9149 23.0674 25.954 20.7562 27.0992 20.5271Z" fill="#FF6200"/>
<path d="M14.293 20.5274C16.4625 20.089 16.3954 23.4863 14.5345 23.2923C13.0841 23.1411 13.1131 20.7652 14.293 20.5274Z" fill="#FF6200"/>
<path d="M9.45703 15.2583V14.0276C11.0719 13.7163 11.0719 15.5695 9.45703 15.2583Z" fill="#FF6200"/>
</svg>
